<svg xmlns="http://www.w3.org/2000/svg" version="1.1" xmlns:xlink="http://www.w3.org/1999/xlink" xmlns:svgjs="http://svgjs.com/svgjs" width="1440" height="560" preserveAspectRatio="none" viewBox="0 0 1440 560"><g mask="url(&quot;#SvgjsMask4220&quot;)" fill="none"><rect width="1440" height="560" x="0" y="0" fill="url(#SvgjsLinearGradient4221)"></rect><path d="M1440 0L723.29 0L1440 154.81z" fill="rgba(255, 255, 255, .1)"></path><path d="M723.29 0L1440 154.81L1440 357.37L600.06 0z" fill="rgba(255, 255, 255, .075)"></path><path d="M600.06 0L1440 357.37L1440 366.71L337.7699999999999 0z" fill="rgba(255, 255, 255, .05)"></path><path d="M337.77 0L1440 366.71L1440 429.09999999999997L229.07 0z" fill="rgba(255, 255, 255, .025)"></path><path d="M0 560L133.91 560L0 438.25z" fill="rgba(0, 0, 0, .1)"></path><path d="M0 438.25L133.91 560L231.37 560L0 295.76z" fill="rgba(0, 0, 0, .075)"></path><path d="M0 295.76L231.37 560L430.58000000000004 560L0 113.28999999999999z" fill="rgba(0, 0, 0, .05)"></path><path d="M0 113.28999999999996L430.58000000000004 560L556.5500000000001 560L0 48.57999999999997z" fill="rgba(0, 0, 0, .025)"></path></g><defs><mask id="SvgjsMask4220"><rect width="1440" height="560" fill="#ffffff"></rect></mask><linearGradient x1="50%" y1="100%" x2="50%" y2="0%" gradientUnits="userSpaceOnUse" id="SvgjsLinearGradient4221"><stop stop-color="rgba(48, 71, 73, 1)" offset="0"></stop><stop stop-color="rgba(136, 175, 177, 1)" offset="0.99"></stop></linearGradient></defs></svg>